<?xml version="1.0" encoding="UTF-8"?>
<svg width="890px" height="462px" viewBox="0 0 890 462" version="1.1" xmlns="http://www.w3.org/2000/svg" xmlns:xlink="http://www.w3.org/1999/xlink">
    <!-- Generator: Sketch 63.1 (92452) - https://sketch.com -->
    <title>logo GIVE4FOREST CURVAS</title>
    <desc>Created with Sketch.</desc>
    <g id="logo-GIVE4FOREST-CURVAS" stroke="none" stroke-width="1" fill="none" fill-rule="evenodd">
        <g id="logo" transform="translate(2.000000, 6.000000)">
            <g id="Give-4-Forest" transform="translate(10.000000, 0.000000)" fill-rule="nonzero">
                <path d="M25.8225882,256.76 C29.0105621,256.76 31.7734728,256.175246 34.1113203,255.005739 C36.4491678,253.836232 38.4682179,252.454087 40.1684706,250.859304 C41.8687233,249.264522 43.1439129,247.56342 43.9940392,245.756 C44.8441656,243.94858 45.3754946,242.513275 45.5880261,241.450087 L45.5880261,241.450087 L47.5008105,254.527304 L62.1654902,254.527304 L62.1654902,140.021913 L33.1549281,140.021913 L33.1549281,167.452174 L40.1684706,167.452174 L40.1684706,222.631652 C40.1684706,225.395942 39.42461,227.788116 37.9368889,229.808174 C36.4491678,231.828232 34.2175861,232.838261 31.2421438,232.838261 C28.4792331,232.838261 26.5133159,231.881391 25.3443922,229.967652 C24.1754684,228.053913 23.5910065,225.60858 23.5910065,222.631652 L23.5910065,222.631652 L23.5910065,35.0852174 C23.5910065,32.3209275 24.0160697,29.8755942 24.8661961,27.7492174 C25.7163224,25.6228406 27.7353725,24.5596522 30.9233464,24.5596522 C34.1113203,24.5596522 36.2366362,25.4633623 37.2992941,27.2707826 C38.3619521,29.0782029 38.893281,33.3841159 38.893281,40.1885217 L38.893281,40.1885217 L38.893281,90.2646957 L62.1654902,90.2646957 L62.1654902,34.1283478 C62.1654902,21.7953623 59.9870414,13.024058 55.6301438,7.81443478 C51.2732462,2.60481159 43.1439129,-2.22585235e-13 31.2421438,-2.22585235e-13 C21.6782222,-2.22585235e-13 14.0802179,2.23269565 8.44813072,6.69808696 C2.81604357,11.1634783 -2.64946525e-12,19.350029 -2.64946525e-12,31.2577391 L-2.64946525e-12,31.2577391 L-2.64946525e-12,226.778087 C-2.64946525e-12,237.622609 2.2847146,245.330725 6.85414379,249.902435 C11.423573,254.474145 17.7463878,256.76 25.8225882,256.76 Z M108.072314,49.1193043 L108.072314,20.7321739 L84.1625098,20.7321739 L84.1625098,49.1193043 L108.072314,49.1193043 Z M108.072314,254.527304 L108.072314,67.2998261 L84.1625098,67.2998261 L84.1625098,254.527304 L108.072314,254.527304 Z M172.150588,254.527304 L187.77166,67.2998261 L163.543059,67.2998261 C162.692932,79.4201739 161.895939,91.9657971 161.152078,104.936696 L161.152078,104.936696 L158.920497,143.849391 C158.176636,156.82029 157.485908,169.525391 156.848314,181.964696 C156.210719,194.404 155.785656,206.152232 155.573124,217.209391 C155.148061,206.152232 154.669865,194.404 154.138536,181.964696 C153.607207,169.525391 153.022745,156.82029 152.38515,143.849391 C151.747556,130.878493 151.003695,117.907594 150.153569,104.936696 C149.303442,91.9657971 148.453316,79.4201739 147.60319,67.2998261 L147.60319,67.2998261 L123.693386,67.2998261 L138.99566,254.527304 L172.150588,254.527304 Z M233.359686,255.484174 C239.735634,255.484174 244.942658,254.208348 248.980758,251.656696 C253.018858,249.105043 256.153699,245.596522 258.385281,241.13113 C260.616863,236.665739 262.157717,231.402957 263.007843,225.342783 C263.857969,219.282609 264.283033,212.850319 264.283033,206.045913 L264.283033,206.045913 L264.283033,196.158261 L241.648418,196.158261 L241.648418,211.78713 C241.648418,216.890435 241.170222,221.408986 240.21383,225.342783 C239.257438,229.27658 237.291521,231.243478 234.316078,231.243478 C231.765699,231.243478 229.906048,229.861333 228.737124,227.097043 C227.5682,224.332754 226.983739,221.143188 226.983739,217.528348 L226.983739,217.528348 L226.983739,169.046957 L264.283033,169.046957 L264.283033,103.341913 C264.283033,92.0721159 261.466989,83.0350145 255.834902,76.2306087 C250.202815,69.4262029 242.923608,66.024 233.997281,66.024 C223.795765,66.024 216.038362,69.1072464 210.725072,75.2737391 C205.411782,81.4402319 202.755137,90.9026087 202.755137,103.66087 L202.755137,103.66087 L202.755137,218.485217 C202.755137,230.392928 205.464915,239.536348 210.884471,245.915478 C216.304026,252.294609 223.795765,255.484174 233.359686,255.484174 Z M240.373229,142.254609 L226.983739,142.254609 L226.983739,103.341913 C226.983739,100.364986 227.408802,97.4412174 228.258928,94.5706087 C229.109054,91.7 231.021839,90.2646957 233.997281,90.2646957 C236.760192,90.2646957 238.513577,91.8063188 239.257438,94.8895652 C240.001298,97.9728116 240.373229,100.790261 240.373229,103.341913 L240.373229,103.341913 L240.373229,142.254609 Z" id="Give" fill="#FF5D49"></path>
                <path d="M394.671163,254.527304 L394.671163,192.011826 L406.466667,192.011826 L406.466667,164.581565 L394.671163,164.581565 L394.671163,1.59478261 L369.804967,1.59478261 L326.448523,164.900522 L326.448523,192.011826 L371.080157,192.011826 L371.080157,254.527304 L394.671163,254.527304 Z M371.080157,164.581565 L348.76434,164.581565 L371.080157,74.6358261 L371.080157,164.581565 Z" id="4" fill="#33B358"></path>
                <path d="M487.441203,254.527304 L487.441203,141.935652 L512.944993,141.935652 L512.944993,114.505391 L487.441203,114.505391 L487.441203,29.344 L518.364549,29.344 L518.364549,1.59478261 L463.212601,1.59478261 L463.212601,254.527304 L487.441203,254.527304 Z M558.851817,255.80313 C567.778144,255.80313 575.110484,252.347768 580.848837,245.437043 C586.58719,238.526319 589.456366,229.436058 589.456366,218.166261 L589.456366,218.166261 L589.456366,103.66087 C589.456366,92.1784348 586.799721,83.0350145 581.486431,76.2306087 C576.173142,69.4262029 568.840802,66.024 559.489412,66.024 C538.873847,66.024 528.566065,78.5696232 528.566065,103.66087 L528.566065,103.66087 L528.566065,218.166261 C528.566065,230.073971 531.22271,239.32371 536.536,245.915478 C541.84929,252.507246 549.287895,255.80313 558.851817,255.80313 Z M558.851817,231.562435 C556.301438,231.562435 554.548052,230.020812 553.59166,226.937565 C552.635268,223.854319 552.157072,221.03687 552.157072,218.485217 L552.157072,218.485217 L552.157072,103.341913 C552.157072,100.577623 552.582135,97.7070145 553.432261,94.730087 C554.282388,91.7531594 556.195172,90.2646957 559.170614,90.2646957 C561.933525,90.2646957 563.633778,91.8063188 564.271373,94.8895652 C564.908967,97.9728116 565.227765,100.790261 565.227765,103.341913 L565.227765,103.341913 L565.865359,218.485217 C565.865359,221.249507 565.440296,224.120116 564.59017,227.097043 C563.740044,230.073971 561.827259,231.562435 558.851817,231.562435 Z M632.81281,254.527304 L632.81281,117.057043 C632.81281,112.591652 633.450405,108.976812 634.725595,106.212522 C636.000784,103.448232 637.541638,101.321855 639.348157,99.8333913 C641.154675,98.3449275 643.06746,97.388058 645.08651,96.9627826 C647.10556,96.5375072 648.965211,96.3248696 650.665464,96.3248696 C651.303059,96.3248696 651.940654,96.378029 652.578248,96.4843478 C653.215843,96.5906667 653.747172,96.6438261 654.172235,96.6438261 L654.172235,96.6438261 L655.447425,96.6438261 L655.447425,65.7050435 L652.259451,65.7050435 C650.559198,65.7050435 648.540148,65.9176812 646.202301,66.3429565 C643.864453,66.7682319 641.42034,67.5656232 638.869961,68.7351304 C636.319582,69.9046377 633.822336,71.4462609 631.378222,73.36 C628.934109,75.2737391 626.861926,77.8253913 625.161673,81.0149565 L625.161673,81.0149565 L623.886484,67.2998261 L608.903007,67.2998261 L608.903007,254.527304 L632.81281,254.527304 Z M698.166275,255.484174 C704.542222,255.484174 709.749246,254.208348 713.787346,251.656696 C717.825447,249.105043 720.960288,245.596522 723.191869,241.13113 C725.423451,236.665739 726.964305,231.402957 727.814431,225.342783 C728.664558,219.282609 729.089621,212.850319 729.089621,206.045913 L729.089621,206.045913 L729.089621,196.158261 L706.455007,196.158261 L706.455007,211.78713 C706.455007,216.890435 705.97681,221.408986 705.020418,225.342783 C704.064026,229.27658 702.098109,231.243478 699.122667,231.243478 C696.572288,231.243478 694.712636,229.861333 693.543712,227.097043 C692.374789,224.332754 691.790327,221.143188 691.790327,217.528348 L691.790327,217.528348 L691.790327,169.046957 L729.089621,169.046957 L729.089621,103.341913 C729.089621,92.0721159 726.273577,83.0350145 720.64149,76.2306087 C715.009403,69.4262029 707.730196,66.024 698.803869,66.024 C688.602353,66.024 680.84495,69.1072464 675.53166,75.2737391 C670.21837,81.4402319 667.561725,90.9026087 667.561725,103.66087 L667.561725,103.66087 L667.561725,218.485217 C667.561725,230.392928 670.271503,239.536348 675.691059,245.915478 C681.110614,252.294609 688.602353,255.484174 698.166275,255.484174 Z M705.179817,142.254609 L691.790327,142.254609 L691.790327,103.341913 C691.790327,100.364986 692.21539,97.4412174 693.065516,94.5706087 C693.915643,91.7 695.828427,90.2646957 698.803869,90.2646957 C701.56678,90.2646957 703.320166,91.8063188 704.064026,94.8895652 C704.807887,97.9728116 705.179817,100.790261 705.179817,103.341913 L705.179817,103.341913 L705.179817,142.254609 Z M774.677647,255.80313 C780.628532,255.80313 785.569891,254.580464 789.501725,252.13513 C793.43356,249.689797 796.568401,246.606551 798.906248,242.885391 C801.244096,239.164232 802.891216,235.017797 803.847608,230.446087 C804.804,225.874377 805.282196,221.355826 805.282196,216.890435 C805.282196,204.344812 803.369412,193.393971 799.543843,184.037913 C795.718275,174.681855 791.573908,165.857391 787.110745,157.564522 C782.647582,149.271652 778.503216,140.819304 774.677647,132.207478 C770.852078,123.595652 768.939294,113.867478 768.939294,103.022957 C768.939294,100.471304 769.364357,97.5475362 770.214484,94.2516522 C771.06461,90.9557681 772.977394,89.3078261 775.952837,89.3078261 C778.715747,89.3078261 780.575399,91.0089275 781.531791,94.4111304 C782.488183,97.8133333 782.966379,103.235594 782.966379,110.677913 L782.966379,110.677913 L782.966379,125.030957 L806.557386,125.030957 L806.557386,108.445217 C806.557386,102.491362 806.026057,96.9096232 804.963399,91.7 C803.900741,86.4903768 802.253621,81.9718261 800.022039,78.1443478 C797.790458,74.3168696 794.761882,71.339942 790.936314,69.2135652 C787.110745,67.0871884 782.541316,66.024 777.228026,66.024 C771.06461,66.024 765.910719,67.2466667 761.766353,69.692 C757.621987,72.1373333 754.274614,75.2737391 751.724235,79.1012174 C749.173856,82.9286957 747.367338,87.1282899 746.30468,91.7 C745.242022,96.2717101 744.710693,100.577623 744.710693,104.617739 C744.710693,113.335884 745.613952,121.203478 747.420471,128.220522 C749.226989,135.237565 751.511704,141.723014 754.274614,147.67687 C757.037525,153.630725 759.959834,159.318783 763.041542,164.741043 C766.123251,170.163304 769.04556,175.638725 771.808471,181.167304 C774.571381,186.695884 776.856096,192.490261 778.662614,198.550435 C780.469133,204.610609 781.372392,211.361855 781.372392,218.804174 C781.372392,220.08 781.266126,221.515304 781.053595,223.110087 C780.841063,224.70487 780.522266,226.193333 780.097203,227.575478 C779.672139,228.957623 779.034545,230.18029 778.184418,231.243478 C777.334292,232.306667 776.271634,232.838261 774.996444,232.838261 C772.233534,232.838261 770.320749,230.765043 769.258092,226.618609 C768.195434,222.472174 767.664105,217.740986 767.664105,212.425043 L767.664105,212.425043 L767.664105,197.11513 L743.754301,197.11513 L743.754301,215.614609 C743.754301,228.160232 746.357813,237.994725 751.564837,245.118087 C756.771861,252.241449 764.476131,255.80313 774.677647,255.80313 Z M856.608575,254.527304 L856.608575,94.730087 L870.954458,94.730087 L870.954458,67.2998261 L856.608575,67.2998261 L856.608575,20.7321739 L832.698771,20.7321739 L832.698771,67.2998261 L817.396497,67.2998261 L817.396497,94.730087 L832.698771,94.730087 L832.698771,254.527304 L856.608575,254.527304 Z" id="Forest" fill="#10B363"></path>
            </g>
            <line x1="2.89308285" y1="308" x2="874.152597" y2="308" id="Line-Copy-2" stroke="#979797" stroke-linecap="square"></line>
            <path d="M34.4304447,419.882664 C38.7538959,419.882664 42.7586311,419.144996 46.4446503,417.669662 C50.1306696,416.194327 53.248543,414.064834 55.7982706,411.281184 L55.7982706,411.281184 L51.8905359,407.356237 C47.4007982,412.03277 41.6639111,414.371036 34.6798746,414.371036 C30.0792791,414.371036 25.8944001,413.313249 22.1252376,411.197674 C18.356075,409.0821 15.4044882,406.187104 13.270477,402.512685 C11.1364659,398.838266 10.0694603,394.718464 10.0694603,390.153277 C10.0694603,385.58809 11.1364659,381.468288 13.270477,377.793869 C15.4044882,374.11945 18.356075,371.224454 22.1252376,369.108879 C25.8944001,366.993305 30.0792791,365.935518 34.6798746,365.935518 C41.6084822,365.935518 47.3453693,368.245948 51.8905359,372.866808 L51.8905359,372.866808 L55.7982706,368.94186 C53.248543,366.15821 50.1445268,364.042636 46.486222,362.595137 C42.8279171,361.147639 38.8370391,360.42389 34.513588,360.42389 C28.7489864,360.42389 23.5386735,361.704369 18.8826492,364.265328 C14.2266249,366.826286 10.5821772,370.37544 7.94930635,374.912791 C5.31643545,379.450141 4,384.530303 4,390.153277 C4,395.776251 5.31643545,400.856413 7.94930635,405.393763 C10.5821772,409.931113 14.2127676,413.480268 18.8410775,416.041226 C23.4693874,418.602185 28.6658432,419.882664 34.4304447,419.882664 Z M73.590935,419.381607 L73.590935,397.001057 C73.590935,391.87914 74.8935132,387.89852 77.4986697,385.059197 C80.1038262,382.219873 83.7067021,380.800211 88.3072976,380.800211 L88.3072976,380.800211 L89.7207336,380.883721 L89.7207336,375.121564 C85.6744267,375.121564 82.279409,375.87315 79.5356803,377.376321 C76.7919517,378.879493 74.7272267,381.106413 73.3415051,384.057082 L73.3415051,384.057082 L73.3415051,375.455603 L67.6877613,375.455603 L67.6877613,419.381607 L73.590935,419.381607 Z M101.360794,436 C104.631097,436 107.430255,435.137068 109.758267,433.411205 C112.086279,431.685342 114.137147,428.762509 115.91087,424.642706 L115.91087,424.642706 L137.777556,375.455603 L131.957526,375.455603 L115.495154,412.784355 L99.0327822,375.455603 L92.8801786,375.455603 L112.418852,419.298097 L110.506556,423.557082 C109.287122,426.229387 107.970686,428.122269 106.55725,429.235729 C105.143814,430.34919 103.439377,430.90592 101.443938,430.90592 C98.3399214,430.90592 95.6793361,429.792459 93.4621817,427.565539 L93.4621817,427.565539 L90.7184531,431.991543 C92.0487457,433.327696 93.6284683,434.32981 95.4576207,434.997886 C97.2867731,435.665962 99.2544977,436 101.360794,436 Z M151.995059,435.582452 L151.995059,411.114165 C153.824211,413.953488 156.166081,416.110817 159.020667,417.586152 C161.875253,419.061487 165.07627,419.799154 168.623717,419.799154 C172.780882,419.799154 176.508473,418.866631 179.80649,417.001586 C183.104507,415.13654 185.695806,412.50599 187.580388,409.109937 C189.464969,405.713883 190.40726,401.816772 190.40726,397.418605 C190.40726,393.07611 189.464969,389.206836 187.580388,385.810782 C185.695806,382.414729 183.09065,379.784179 179.764918,377.919133 C176.439187,376.054087 172.725453,375.121564 168.623717,375.121564 C164.965412,375.121564 161.681252,375.900987 158.771237,377.459831 C155.861222,379.018675 153.519353,381.245595 151.745629,384.140592 L151.745629,384.140592 L151.745629,375.455603 L146.091885,375.455603 L146.091885,435.582452 L151.995059,435.582452 Z M168.208001,414.538055 C165.103985,414.538055 162.318684,413.828224 159.8521,412.408562 C157.385516,410.988901 155.445506,408.970754 154.03207,406.354123 C152.618634,403.737491 151.911916,400.758985 151.911916,397.418605 C151.911916,394.078224 152.618634,391.113636 154.03207,388.524841 C155.445506,385.936047 157.385516,383.9179 159.8521,382.470402 C162.318684,381.022903 165.103985,380.299154 168.208001,380.299154 C171.256588,380.299154 174.028031,381.022903 176.52233,382.470402 C179.016629,383.9179 180.970496,385.936047 182.383932,388.524841 C183.797368,391.113636 184.504086,394.078224 184.504086,397.418605 C184.504086,400.758985 183.797368,403.737491 182.383932,406.354123 C180.970496,408.970754 179.016629,410.988901 176.52233,412.408562 C174.028031,413.828224 171.256588,414.538055 168.208001,414.538055 Z M216.264823,419.799154 C218.038547,419.799154 219.742984,419.534708 221.378136,419.005814 C223.013287,418.47692 224.385151,417.711416 225.493729,416.709302 L225.493729,416.709302 L223.415146,412.450317 C222.583713,413.174066 221.599851,413.730796 220.463559,414.120507 C219.327268,414.510218 218.149405,414.705074 216.92997,414.705074 C214.4911,414.705074 212.620376,414.02308 211.317797,412.659091 C210.015219,411.295102 209.36393,409.304792 209.36393,406.688161 L209.36393,406.688161 L209.36393,380.466173 L222.666857,380.466173 L222.666857,375.455603 L209.36393,375.455603 L209.36393,365.852008 L203.460756,365.852008 L203.460756,375.455603 L195.645287,375.455603 L195.645287,380.466173 L203.460756,380.466173 L203.460756,407.022199 C203.460756,411.086328 204.569334,414.231853 206.786488,416.458774 C209.003642,418.685694 212.163088,419.799154 216.264823,419.799154 Z M254.095021,419.799154 C258.307614,419.799154 262.104491,418.838795 265.485652,416.918076 C268.866812,414.997357 271.51354,412.338971 273.425836,408.942918 C275.338132,405.546864 276.29428,401.705426 276.29428,397.418605 C276.29428,393.131783 275.338132,389.290345 273.425836,385.894292 C271.51354,382.498238 268.866812,379.85377 265.485652,377.960888 C262.104491,376.068006 258.307614,375.121564 254.095021,375.121564 C249.882427,375.121564 246.08555,376.068006 242.70439,377.960888 C239.323229,379.85377 236.662644,382.498238 234.722634,385.894292 C232.782624,389.290345 231.812619,393.131783 231.812619,397.418605 C231.812619,401.705426 232.782624,405.546864 234.722634,408.942918 C236.662644,412.338971 239.323229,414.997357 242.70439,416.918076 C246.08555,418.838795 249.882427,419.799154 254.095021,419.799154 Z M254.095021,414.538055 C250.991005,414.538055 248.205704,413.828224 245.73912,412.408562 C243.272536,410.988901 241.332526,408.970754 239.91909,406.354123 C238.505654,403.737491 237.798936,400.758985 237.798936,397.418605 C237.798936,394.078224 238.505654,391.099718 239.91909,388.483087 C241.332526,385.866455 243.272536,383.848309 245.73912,382.428647 C248.205704,381.008985 250.991005,380.299154 254.095021,380.299154 C257.199037,380.299154 259.984337,381.008985 262.450922,382.428647 C264.917506,383.848309 266.843659,385.866455 268.22938,388.483087 C269.615102,391.099718 270.307963,394.078224 270.307963,397.418605 C270.307963,400.758985 269.615102,403.737491 268.22938,406.354123 C266.843659,408.970754 264.917506,410.988901 262.450922,412.408562 C259.984337,413.828224 257.199037,414.538055 254.095021,414.538055 Z M314.872767,419.882664 C319.196218,419.882664 323.200953,419.144996 326.886973,417.669662 C330.572992,416.194327 333.690865,414.064834 336.240593,411.281184 L336.240593,411.281184 L332.332858,407.356237 C327.84312,412.03277 322.106233,414.371036 315.122197,414.371036 C310.521601,414.371036 306.336722,413.313249 302.56756,411.197674 C298.798397,409.0821 295.84681,406.187104 293.712799,402.512685 C291.578788,398.838266 290.511783,394.718464 290.511783,390.153277 C290.511783,385.58809 291.578788,381.468288 293.712799,377.793869 C295.84681,374.11945 298.798397,371.224454 302.56756,369.108879 C306.336722,366.993305 310.521601,365.935518 315.122197,365.935518 C322.050805,365.935518 327.787692,368.245948 332.332858,372.866808 L332.332858,372.866808 L336.240593,368.94186 C333.690865,366.15821 330.586849,364.042636 326.928544,362.595137 C323.270239,361.147639 319.279361,360.42389 314.95591,360.42389 C309.191309,360.42389 303.980996,361.704369 299.324971,364.265328 C294.668947,366.826286 291.0245,370.37544 288.391629,374.912791 C285.758758,379.450141 284.442322,384.530303 284.442322,390.153277 C284.442322,395.776251 285.758758,400.856413 288.391629,405.393763 C291.0245,409.931113 294.65509,413.480268 299.2834,416.041226 C303.91171,418.602185 309.108165,419.882664 314.872767,419.882664 Z M354.033257,419.381607 L354.033257,397.001057 C354.033257,391.87914 355.335836,387.89852 357.940992,385.059197 C360.546148,382.219873 364.149024,380.800211 368.74962,380.800211 L368.74962,380.800211 L370.163056,380.883721 L370.163056,375.121564 C366.116749,375.121564 362.721731,375.87315 359.978003,377.376321 C357.234274,378.879493 355.169549,381.106413 353.783827,384.057082 L353.783827,384.057082 L353.783827,375.455603 L348.130084,375.455603 L348.130084,419.381607 L354.033257,419.381607 Z M399.346351,419.799154 C403.558945,419.799154 407.355822,418.838795 410.736982,416.918076 C414.118143,414.997357 416.764871,412.338971 418.677166,408.942918 C420.589462,405.546864 421.54561,401.705426 421.54561,397.418605 C421.54561,393.131783 420.589462,389.290345 418.677166,385.894292 C416.764871,382.498238 414.118143,379.85377 410.736982,377.960888 C407.355822,376.068006 403.558945,375.121564 399.346351,375.121564 C395.133758,375.121564 391.336881,376.068006 387.95572,377.960888 C384.57456,379.85377 381.913974,382.498238 379.973964,385.894292 C378.033954,389.290345 377.063949,393.131783 377.063949,397.418605 C377.063949,401.705426 378.033954,405.546864 379.973964,408.942918 C381.913974,412.338971 384.57456,414.997357 387.95572,416.918076 C391.336881,418.838795 395.133758,419.799154 399.346351,419.799154 Z M399.346351,414.538055 C396.242335,414.538055 393.457035,413.828224 390.99045,412.408562 C388.523866,410.988901 386.583856,408.970754 385.17042,406.354123 C383.756984,403.737491 383.050266,400.758985 383.050266,397.418605 C383.050266,394.078224 383.756984,391.099718 385.17042,388.483087 C386.583856,385.866455 388.523866,383.848309 390.99045,382.428647 C393.457035,381.008985 396.242335,380.299154 399.346351,380.299154 C402.450367,380.299154 405.235668,381.008985 407.702252,382.428647 C410.168836,383.848309 412.094989,385.866455 413.480711,388.483087 C414.866432,391.099718 415.559293,394.078224 415.559293,397.418605 C415.559293,400.758985 414.866432,403.737491 413.480711,406.354123 C412.094989,408.970754 410.168836,410.988901 407.702252,412.408562 C405.235668,413.828224 402.450367,414.538055 399.346351,414.538055 Z M448.06832,419.381607 L461.870106,383.389006 L475.671893,419.381607 L481.242493,419.381607 L497.788008,375.455603 L492.383694,375.455603 L478.498765,412.784355 L464.530692,375.455603 L459.458951,375.455603 L445.407735,412.784355 L431.689092,375.455603 L426.035348,375.455603 L442.497719,419.381607 L448.06832,419.381607 Z M524.061288,419.799154 C527.719593,419.799154 531.003753,419.019732 533.913769,417.460888 C536.823784,415.902044 539.165653,413.647287 540.939377,410.696617 L540.939377,410.696617 L540.939377,419.381607 L546.59312,419.381607 L546.59312,357.417548 L540.689947,357.417548 L540.689947,383.806554 C538.860794,380.96723 536.518925,378.809901 533.664339,377.334567 C530.809752,375.859232 527.608736,375.121564 524.061288,375.121564 C519.959553,375.121564 516.245819,376.054087 512.920087,377.919133 C509.594356,379.784179 506.989199,382.414729 505.104618,385.810782 C503.220037,389.206836 502.277746,393.07611 502.277746,397.418605 C502.277746,401.761099 503.220037,405.630374 505.104618,409.026427 C506.989199,412.422481 509.594356,415.066949 512.920087,416.959831 C516.245819,418.852713 519.959553,419.799154 524.061288,419.799154 Z M524.560148,414.538055 C521.456132,414.538055 518.670832,413.828224 516.204247,412.408562 C513.737663,410.988901 511.797653,408.970754 510.384217,406.354123 C508.970781,403.737491 508.264063,400.758985 508.264063,397.418605 C508.264063,394.078224 508.970781,391.099718 510.384217,388.483087 C511.797653,385.866455 513.737663,383.848309 516.204247,382.428647 C518.670832,381.008985 521.456132,380.299154 524.560148,380.299154 C527.608736,380.299154 530.366321,381.008985 532.832906,382.428647 C535.29949,383.848309 537.2395,385.866455 538.652936,388.483087 C540.066372,391.099718 540.77309,394.078224 540.77309,397.418605 C540.77309,400.758985 540.066372,403.737491 538.652936,406.354123 C537.2395,408.970754 535.29949,410.988901 532.832906,412.408562 C530.366321,413.828224 527.608736,414.538055 524.560148,414.538055 Z M569.956385,419.381607 L569.956385,380.466173 L583.259312,380.466173 L583.259312,375.455603 L569.790099,375.455603 L569.790099,370.278013 C569.790099,367.550035 570.441388,365.490134 571.743966,364.098309 C573.046544,362.706483 574.972697,362.010571 577.522425,362.010571 C580.127581,362.010571 582.289307,362.73432 584.007602,364.181818 L584.007602,364.181818 L586.003041,359.755814 C584.949892,358.865046 583.647314,358.183051 582.095306,357.709831 C580.543298,357.23661 578.935861,357 577.272995,357 C573.060402,357 569.803956,358.169133 567.503658,360.5074 C565.203361,362.845666 564.053212,366.019027 564.053212,370.027484 L564.053212,370.027484 L564.053212,375.455603 L556.237742,375.455603 L556.237742,380.466173 L564.053212,380.466173 L564.053212,419.381607 L569.956385,419.381607 Z M609.283162,419.799154 C612.775181,419.799154 615.879197,419.061487 618.595211,417.586152 C621.311225,416.110817 623.445236,414.036998 624.997244,411.364693 L624.997244,411.364693 L624.997244,419.381607 L630.650988,419.381607 L630.650988,375.455603 L624.747815,375.455603 L624.747815,398.504228 C624.747815,403.514799 623.417522,407.425828 620.756937,410.237315 C618.096351,413.048802 614.465761,414.454545 609.865165,414.454545 C605.652572,414.454545 602.409984,413.257576 600.1374,410.863636 C597.864817,408.469697 596.728525,404.962297 596.728525,400.341438 L596.728525,400.341438 L596.728525,375.455603 L590.825352,375.455603 L590.825352,400.926004 C590.825352,407.105708 592.47436,411.796159 595.772377,414.997357 C599.070395,418.198555 603.57399,419.799154 609.283162,419.799154 Z M653.099677,419.381607 L653.099677,396.332981 C653.099677,391.378083 654.471541,387.494891 657.21527,384.683404 C659.958998,381.871917 663.686589,380.466173 668.398043,380.466173 C672.610636,380.466173 675.853224,381.663143 678.125808,384.057082 C680.398391,386.451022 681.534683,389.930585 681.534683,394.495772 L681.534683,394.495772 L681.534683,419.381607 L687.437856,419.381607 L687.437856,393.911205 C687.437856,387.787174 685.816562,383.12456 682.573974,379.923362 C679.331385,376.722163 674.966363,375.121564 669.478905,375.121564 C665.709743,375.121564 662.397868,375.859232 659.543282,377.334567 C656.688696,378.809901 654.457684,380.883721 652.850247,383.556025 L652.850247,383.556025 L652.850247,375.455603 L647.196503,375.455603 L647.196503,419.381607 L653.099677,419.381607 Z M720.86146,419.799154 C724.519764,419.799154 727.803924,419.019732 730.71394,417.460888 C733.623955,415.902044 735.965824,413.647287 737.739548,410.696617 L737.739548,410.696617 L737.739548,419.381607 L743.393292,419.381607 L743.393292,357.417548 L737.490118,357.417548 L737.490118,383.806554 C735.660965,380.96723 733.319096,378.809901 730.46451,377.334567 C727.609923,375.859232 724.408907,375.121564 720.86146,375.121564 C716.759724,375.121564 713.04599,376.054087 709.720258,377.919133 C706.394527,379.784179 703.78937,382.414729 701.904789,385.810782 C700.020208,389.206836 699.077917,393.07611 699.077917,397.418605 C699.077917,401.761099 700.020208,405.630374 701.904789,409.026427 C703.78937,412.422481 706.394527,415.066949 709.720258,416.959831 C713.04599,418.852713 716.759724,419.799154 720.86146,419.799154 Z M721.360319,414.538055 C718.256303,414.538055 715.471003,413.828224 713.004418,412.408562 C710.537834,410.988901 708.597824,408.970754 707.184388,406.354123 C705.770952,403.737491 705.064234,400.758985 705.064234,397.418605 C705.064234,394.078224 705.770952,391.099718 707.184388,388.483087 C708.597824,385.866455 710.537834,383.848309 713.004418,382.428647 C715.471003,381.008985 718.256303,380.299154 721.360319,380.299154 C724.408907,380.299154 727.166492,381.008985 729.633077,382.428647 C732.099661,383.848309 734.039671,385.866455 735.453107,388.483087 C736.866543,391.099718 737.573261,394.078224 737.573261,397.418605 C737.573261,400.758985 736.866543,403.737491 735.453107,406.354123 C734.039671,408.970754 732.099661,410.988901 729.633077,412.408562 C727.166492,413.828224 724.408907,414.538055 721.360319,414.538055 Z M762.848822,365.852008 C764.068257,365.852008 765.093691,365.434461 765.925124,364.599366 C766.756556,363.764271 767.172273,362.73432 767.172273,361.509514 C767.172273,360.396054 766.756556,359.435694 765.925124,358.628436 C765.093691,357.821177 764.068257,357.417548 762.848822,357.417548 C761.629387,357.417548 760.603953,357.835095 759.77252,358.67019 C758.941087,359.505285 758.525371,360.479563 758.525371,361.593023 C758.525371,362.762156 758.941087,363.764271 759.77252,364.599366 C760.603953,365.434461 761.629387,365.852008 762.848822,365.852008 Z M765.758837,419.381607 L765.758837,375.455603 L759.855663,375.455603 L759.855663,419.381607 L765.758837,419.381607 Z M788.124382,419.381607 L788.124382,396.332981 C788.124382,391.378083 789.496247,387.494891 792.239975,384.683404 C794.983704,381.871917 798.711295,380.466173 803.422748,380.466173 C807.635341,380.466173 810.87793,381.663143 813.150513,384.057082 C815.423096,386.451022 816.559388,389.930585 816.559388,394.495772 L816.559388,394.495772 L816.559388,419.381607 L822.462562,419.381607 L822.462562,393.911205 C822.462562,387.787174 820.841268,383.12456 817.598679,379.923362 C814.356091,376.722163 809.991068,375.121564 804.503611,375.121564 C800.734448,375.121564 797.422574,375.859232 794.567987,377.334567 C791.713401,378.809901 789.482389,380.883721 787.874952,383.556025 L787.874952,383.556025 L787.874952,375.455603 L782.221209,375.455603 L782.221209,419.381607 L788.124382,419.381607 Z M857.133314,436 C864.449924,436 869.923524,434.204545 873.554114,430.613636 C877.184705,427.022727 879,421.497181 879,414.036998 L879,414.036998 L879,375.455603 L873.346256,375.455603 L873.346256,383.890063 C871.517104,381.05074 869.105948,378.879493 866.11279,377.376321 C863.119631,375.87315 859.766185,375.121564 856.052452,375.121564 C851.895287,375.121564 848.153839,376.012333 844.828107,377.793869 C841.502376,379.575405 838.883362,382.080691 836.971066,385.309725 C835.05877,388.53876 834.102623,392.213178 834.102623,396.332981 C834.102623,400.452784 835.05877,404.141121 836.971066,407.397992 C838.883362,410.654863 841.516233,413.187984 844.869679,414.997357 C848.223125,416.80673 851.950716,417.711416 856.052452,417.711416 C859.655328,417.711416 862.939488,416.987667 865.904932,415.540169 C868.870376,414.092671 871.267674,411.977097 873.096826,409.193446 L873.096826,409.193446 L873.096826,414.788584 C873.096826,420.244538 871.794248,424.266913 869.189092,426.855708 C866.583935,429.444503 862.509914,430.738901 856.967028,430.738901 C853.641296,430.738901 850.467994,430.210007 847.447121,429.15222 C844.426248,428.094433 841.862663,426.619098 839.756366,424.726216 L839.756366,424.726216 L836.763208,429.235729 C839.035791,431.351304 841.987378,433.007576 845.617968,434.204545 C849.248559,435.401515 853.087007,436 857.133314,436 Z M856.634455,412.450317 C853.47501,412.450317 850.63428,411.768323 848.112267,410.404334 C845.590254,409.040345 843.622529,407.133545 842.209094,404.683932 C840.795658,402.23432 840.08894,399.450669 840.08894,396.332981 C840.08894,393.215292 840.795658,390.431642 842.209094,387.98203 C843.622529,385.532417 845.590254,383.639535 848.112267,382.303383 C850.63428,380.96723 853.47501,380.299154 856.634455,380.299154 C859.849329,380.299154 862.717772,380.981149 865.239785,382.345137 C867.761798,383.709126 869.729523,385.602008 871.142959,388.023784 C872.556395,390.44556 873.263113,393.215292 873.263113,396.332981 C873.263113,399.450669 872.556395,402.23432 871.142959,404.683932 C869.729523,407.133545 867.747941,409.040345 865.198214,410.404334 C862.648486,411.768323 859.7939,412.450317 856.634455,412.450317 Z" id="CryptoCrowdfunding" fill="#4D4D4D" fill-rule="nonzero"></path>
        </g>
    </g>
</svg>